HIERARCHY
ROOT Hips
{
	OFFSET 0.00000 0.00000 0.00000
	CHANNELS 6 Xposition Yposition Zposition Zrotation Yrotation Xrotation 
	JOINT LHipJoint
	{
		OFFSET 0 0 0
		CHANNELS 3 Zrotation Yrotation Xrotation
		JOINT LeftHip
		{
			OFFSET 1.65412 -1.54119 0.76744
			CHANNELS 3 Zrotation Yrotation Xrotation
			JOINT LeftKnee
			{
				OFFSET 2.19550 -6.03209 0.00000
				CHANNELS 3 Zrotation Yrotation Xrotation
				JOINT LeftAnkle
				{
					OFFSET 2.38814 -6.56138 0.00000
					CHANNELS 3 Zrotation Yrotation Xrotation
					JOINT LeftToe
					{
						OFFSET 0.17337 -0.47632 1.75875
						CHANNELS 3 Zrotation Yrotation Xrotation
						End Site
						{
							OFFSET 0.00000 -0.00000 0.92050
						}
					}
				}
			}
		}
	}
	JOINT RHipJoint
	{
		OFFSET 0 0 0
		CHANNELS 3 Zrotation Yrotation Xrotation
		JOINT RightHip
		{
			OFFSET -1.40291 -1.54119 0.76744
			CHANNELS 3 Zrotation Yrotation Xrotation
			JOINT RightKnee
			{
				OFFSET -2.22156 -6.10370 0.00000
				CHANNELS 3 Zrotation Yrotation Xrotation
				JOINT RightAnkle
				{
					OFFSET -2.46840 -6.78188 0.00000
					CHANNELS 3 Zrotation Yrotation Xrotation
					JOINT RightToe
					{
						OFFSET -0.15659 -0.43024 1.84117
						CHANNELS 3 Zrotation Yrotation Xrotation
						End Site
						{
							OFFSET -0.00000 -0.00000 0.95587
						}
					}
				}
			}
		}
	}
	JOINT lowerback
	{
		OFFSET 0 0 0
		CHANNELS 3 Zrotation Yrotation Xrotation
		JOINT Chest
		{
			OFFSET -0.01936 1.82120 -0.32061
			CHANNELS 3 Zrotation Yrotation Xrotation
			JOINT Chest2
			{
				OFFSET -0.00532 1.85767 -0.00071
				CHANNELS 3 Zrotation Yrotation Xrotation
				JOINT lowerneck
				{
					OFFSET 0 0 0
					CHANNELS 3 Zrotation Yrotation Xrotation
					JOINT Neck
					{
						OFFSET -0.10687 1.58194 0.10810
						CHANNELS 3 Zrotation Yrotation Xrotation
						JOINT Head
						{
							OFFSET 0.15346 1.57382 -0.25612
							CHANNELS 3 Zrotation Yrotation Xrotation
							End Site
							{
								OFFSET 0.05334 1.61251 -0.10513
							}
						}
					}
				}
				JOINT LeftCollar
				{
					OFFSET 0 0 0
					CHANNELS 3 Zrotation Yrotation Xrotation
					JOINT LeftShoulder
					{
						OFFSET 2.85758 0.89498 -0.01485
CHANNELS 3 Zrotation Xrotation Yrotation
						JOINT LeftElbow
						{
OFFSET 0 -4.791850 -0.000000
CHANNELS 3 Zrotation Xrotation Yrotation
							JOINT LeftWrist
							{
OFFSET 0 -2.655530 0.000000
CHANNELS 3 Zrotation Xrotation Yrotation
								JOINT lhand
								{
									OFFSET 0 0 0
CHANNELS 3 Zrotation Xrotation Yrotation
									JOINT LFingers
									{
OFFSET 0 -0.743900 0.000000
CHANNELS 3 Zrotation Xrotation Yrotation
										End Site
										{
OFFSET 0 -0.599750 0.000000
										}
									}
								}
								JOINT LThumb
								{
OFFSET 0 0.000000 0.000000
CHANNELS 3 Zrotation Xrotation Yrotation
									End Site
									{
OFFSET 0 -0.608910 0.608910
									}
								}
							}
						}
					}
				}
				JOINT RightCollar
				{
					OFFSET 0 0 0
					CHANNELS 3 Zrotation Yrotation Xrotation
					JOINT RightShoulder
					{
						OFFSET -2.93906 0.88031 0.02490
CHANNELS 3 Zrotation Xrotation Yrotation
						JOINT RightElbow
						{
OFFSET 0 -4.772540 -0.000000
CHANNELS 3 Zrotation Xrotation Yrotation
							JOINT RightWrist
							{
OFFSET 0 -2.759950 -0.000000
CHANNELS 3 Zrotation Xrotation Yrotation
								JOINT rhand
								{
									OFFSET 0 0 0
CHANNELS 3 Zrotation Xrotation Yrotation
									JOINT RFingers
									{
OFFSET 0 -0.701620 0.000000
CHANNELS 3 Zrotation Xrotation Yrotation
										End Site
										{
OFFSET 0 -0.565660 0.000000
										}
									}
								}
								JOINT RThumb
								{
OFFSET 0 0.000000 0.000000
CHANNELS 3 Zrotation Xrotation Yrotation
									End Site
									{
OFFSET 0 -0.574300 0.574300
									}
								}
							}
						}
					}
				}
			}
		}
	}
}
MOTION
Frames: 12
Frame Time: 0.008333333333333333
0.386700 15.904300 -1.797100 -0.631000 -1.795300 16.911200 0.000000 0.000000 0.000000 -10.445600 -15.873500 -32.468100 2.663700 10.129600 29.397600 0.188200 2.174900 -9.294100 0.598200 -4.951300 -13.769700 0.000000 0.000000 0.000000 9.204500 20.757300 -32.812800 -3.183300 -10.986000 32.232800 -0.153000 -6.764200 -12.727500 -0.543900 4.725100 -13.126100 -1.524000 0.849800 31.621200 -0.404100 0.562400 11.021200 0.237900 0.242400 -4.799100 -13.603800 -8.966700 -8.686600 15.670900 -12.283800 10.488600 6.110300 -5.585200 6.455600 0.000000 0.000000 0.000000 2.852400 -16.671100 -47.329300 39.210100 -47.594900 17.853800 14.794100 -20.168500 -10.206800 0.000000 0.000000 0.000000 -7.125000 0.000000 0.000000 -10.738800 40.298700 -1.261300 0.000000 0.000000 0.000000 -6.510900 -14.409400 36.511400 -33.052800 -43.370600 -13.458300 -14.520500 -6.855400 -12.060500 0.000000 0.000000 0.000000 7.125000 0.000000 -0.000000 8.831500 17.621800 5.813300
0.389073 15.862947 -1.815987 -0.422254 -1.818231 17.150520 0.000000 0.000000 0.000000 -10.558946 -15.683452 -33.572917 2.848265 10.445245 30.430905 0.209823 1.483305 -9.327579 0.570084 -4.835141 -13.439139 0.000000 0.000000 0.000000 8.738005 20.725397 -34.041568 -3.429079 -11.359134 33.500928 -0.191506 -6.414731 -13.001260 -0.564963 4.814191 -13.379448 -1.827739 0.902777 31.401457 -0.301661 0.552403 10.683382 0.530601 0.234983 -5.087123 -13.622545 -8.956132 -8.930807 15.497191 -12.187104 10.208446 6.057184 -5.544761 6.384876 0.000000 0.000000 0.000000 2.877494 -16.710317 -47.444848 38.402889 -47.094719 17.260062 14.718967 -19.865982 -10.844334 0.000000 0.000000 0.000000 -7.125000 0.000000 0.000000 -10.937237 40.937069 -1.110892 0.000000 0.000000 0.000000 -7.111001 -14.772273 35.601361 -30.749162 -41.526890 -11.903168 -14.598009 -5.949815 -12.273433 0.000000 0.000000 0.000000 7.125000 0.000000 0.000000 8.775401 17.399928 5.818678
0.386221 15.836651 -1.844317 -0.209693 -1.407958 17.217960 0.000000 0.000000 0.000000 -10.714454 -15.678996 -34.210829 2.941142 10.599142 30.939534 0.213404 0.903890 -9.103094 0.545695 -4.732257 -13.146439 0.000000 0.000000 0.000000 8.442471 20.475677 -34.684321 -3.584453 -11.585883 34.282244 -0.213160 -6.362644 -13.299662 -0.568813 4.830299 -13.425172 -1.724336 0.766891 31.410929 -0.237636 0.421079 10.381639 0.585925 0.178879 -5.431954 -13.591560 -8.986678 -9.186976 15.465773 -12.198251 10.162251 6.030557 -5.540605 6.412722 0.000000 0.000000 0.000000 3.240080 -16.814995 -47.694719 38.393762 -47.088944 17.253475 16.293751 -20.842625 -10.783940 0.000000 0.000000 0.000000 -7.125000 0.000000 0.000000 -9.554569 41.016433 -0.948493 0.000000 0.000000 0.000000 -7.819248 -14.733282 35.103209 -29.602416 -40.550133 -11.150227 -14.171277 -5.259933 -11.537895 0.000000 0.000000 0.000000 7.125000 0.000000 0.000000 9.082491 18.175554 5.870450
0.376675 15.803443 -1.872694 -0.031382 -1.342636 17.104155 0.000000 0.000000 0.000000 -10.875835 -15.575065 -34.637099 3.044439 10.766625 31.496901 0.217228 0.595973 -9.040722 0.593692 -4.932935 -13.717348 0.000000 0.000000 0.000000 8.192604 20.491676 -35.028210 -3.682934 -11.726096 34.769795 -0.223344 -6.380515 -13.478846 -0.897760 6.038838 -16.897182 -1.718664 0.865379 31.701744 -0.239083 0.537465 10.167010 0.537803 0.238749 -5.809889 -13.530094 -9.010350 -8.879794 15.674615 -12.222889 9.414519 6.094814 -5.567615 6.141836 0.000000 0.000000 0.000000 3.603082 -16.878726 -46.321842 38.773912 -47.326470 17.532354 13.346474 -19.151486 -9.535959 0.000000 0.000000 0.000000 -7.125000 0.000000 0.000000 -11.842671 39.504983 -1.630427 0.000000 0.000000 0.000000 -8.490860 -14.506891 34.342118 -29.722816 -40.654654 -11.228632 -14.478887 -5.231509 -12.051416 0.000000 0.000000 0.000000 7.125000 0.000000 0.000000 8.860565 17.633953 5.830429
0.354858 15.790456 -1.904149 0.058651 -0.970033 16.962603 0.000000 0.000000 0.000000 -10.834911 -15.732585 -34.738752 3.074654 10.814863 31.658099 0.214336 0.335996 -8.872460 0.607638 -4.989415 -13.878377 0.000000 0.000000 0.000000 8.138653 20.494480 -35.206537 -3.777026 -11.857532 35.230000 -0.233602 -6.530157 -13.787155 -0.850446 5.881689 -16.441496 -1.618997 0.873251 31.856127 -0.184537 0.581980 10.163786 0.524204 0.262054 -5.884274 -13.149701 -9.122314 -9.404826 15.544374 -12.346402 9.309589 5.954388 -5.600869 6.185902 0.000000 0.000000 0.000000 4.340088 -17.105910 -45.801887 39.041576 -47.491711 17.729438 14.761834 -19.159667 -10.260308 0.000000 0.000000 0.000000 -7.125000 0.000000 0.000000 -10.780375 40.348402 -1.247511 0.000000 0.000000 0.000000 -8.813551 -14.879100 33.398669 -29.967737 -40.865726 -11.388496 -14.342467 -5.099169 -11.878792 0.000000 0.000000 0.000000 7.125000 0.000000 0.000000 8.957759 17.818297 5.859240
0.338879 15.786987 -1.925328 -0.062894 -0.877305 16.856164 0.000000 0.000000 0.000000 -10.593867 -15.886147 -34.667989 3.078300 10.820800 31.677900 0.214599 0.473727 -8.934228 0.613169 -5.011631 -13.941707 0.000000 0.000000 0.000000 8.400425 20.281904 -35.348893 -3.824056 -11.922497 35.458467 -0.250829 -6.250799 -13.777643 -0.700924 5.350236 -14.910509 -1.424182 0.824634 31.710621 -0.173969 0.582943 10.150430 0.424001 0.263951 -5.833012 -13.215777 -9.133972 -9.400782 15.551324 -12.353199 9.294908 5.966513 -5.606531 6.186421 0.000000 0.000000 0.000000 4.568892 -17.262576 -44.445455 39.131434 -47.546804 17.795701 14.793523 -19.170532 -9.678425 0.000000 0.000000 0.000000 -7.125000 0.000000 0.000000 -10.633270 39.763710 -1.390431 0.000000 0.000000 0.000000 -8.850573 -15.227544 32.844013 -30.337052 -41.180499 -11.630899 -14.532113 -5.171139 -12.130356 0.000000 0.000000 0.000000 7.125000 0.000000 0.000000 8.822614 17.549905 5.821351
0.313731 15.781051 -1.954422 -0.377226 -0.806254 16.796239 0.000000 0.000000 0.000000 -10.055860 -15.934635 -34.847017 3.119830 10.886517 31.898138 0.220458 0.443292 -9.040596 0.591069 -4.922334 -13.687147 0.000000 0.000000 0.000000 8.888382 20.274077 -35.375266 -3.844058 -11.949945 35.555109 -0.254079 -6.113102 -13.696438 -0.561706 4.800093 -13.339327 -1.213537 0.854061 31.641191 -0.028241 0.694024 10.082320 0.426239 0.316238 -5.881349 -13.273849 -9.070178 -9.454047 15.442729 -12.246863 9.390600 5.952150 -5.558545 6.204910 0.000000 0.000000 0.000000 4.734499 -17.505362 -43.604629 38.533844 -47.176873 17.356104 14.957629 -19.369387 -9.350324 0.000000 0.000000 0.000000 -7.125000 0.000000 0.000000 -10.428717 39.444209 -1.446053 0.000000 0.000000 0.000000 -9.025836 -15.524086 32.732912 -30.908301 -41.659317 -12.008858 -14.198901 -5.523480 -11.988114 0.000000 0.000000 0.000000 7.125000 0.000000 0.000000 9.056044 17.716743 5.945642
0.299640 15.773801 -1.978847 -0.243940 -0.883602 16.876209 0.000000 0.000000 0.000000 -10.034317 -16.183967 -34.977983 3.129962 10.902511 31.951721 0.216661 0.659872 -9.056744 0.616592 -5.025395 -13.981015 0.000000 0.000000 0.000000 8.724394 20.173841 -35.651837 -3.855152 -11.965153 35.608735 -0.254988 -5.894131 -13.503685 -0.585751 4.900141 -13.624012 -1.399181 0.887390 31.573494 -0.063997 0.678143 9.905385 0.498580 0.309490 -6.052690 -13.282325 -8.934629 -9.200087 15.571880 -12.075861 9.117948 6.026747 -5.485866 6.060336 0.000000 0.000000 0.000000 4.904356 -17.077542 -43.023437 38.629849 -47.236834 17.426543 15.002610 -19.595103 -9.556404 0.000000 0.000000 0.000000 -7.125000 0.000000 0.000000 -10.429931 39.656768 -1.391058 0.000000 0.000000 0.000000 -9.047326 -15.469435 33.330325 -31.955712 -42.511820 -12.710907 -14.059785 -5.937805 -11.477859 0.000000 0.000000 0.000000 7.125000 0.000000 0.000000 9.161377 18.243379 5.908943
0.283903 15.775072 -1.993055 -0.190407 -0.944898 16.799127 0.000000 0.000000 0.000000 -9.993474 -16.351987 -34.799506 3.106934 10.866180 31.829844 0.213676 0.923595 -9.118742 0.634839 -5.097872 -14.187918 0.000000 0.000000 0.000000 8.703203 20.316834 -35.542229 -3.840090 -11.944577 35.536105 -0.252748 -5.949923 -13.521273 -0.572704 4.845966 -13.469805 -1.410426 0.951846 31.611442 -0.167399 0.743552 9.771319 0.365052 0.343219 -6.222502 -13.151776 -8.903196 -8.742605 15.825073 -12.082821 8.659884 6.103810 -5.501531 5.851038 0.000000 0.000000 0.000000 4.963353 -16.751554 -42.800466 38.710155 -47.286804 17.485529 15.041132 -19.138068 -9.830220 0.000000 0.000000 0.000000 -7.125000 0.000000 0.000000 -10.450393 39.937774 -1.320825 0.000000 0.000000 0.000000 -8.679805 -15.251167 33.759121 -32.654859 -43.062943 -13.185803 -14.360419 -6.043727 -11.629722 0.000000 0.000000 0.000000 7.125000 0.000000 0.000000 8.948969 18.070272 5.803064
0.272727 15.783065 -1.998748 -0.251929 -0.801617 16.895753 0.000000 0.000000 0.000000 -9.810593 -16.509562 -34.803505 3.070261 10.807867 31.634742 0.213671 0.970394 -9.140174 0.613712 -5.013894 -13.948227 0.000000 0.000000 0.000000 8.779348 20.403611 -35.483760 -3.792336 -11.878767 35.304563 -0.242048 -6.153672 -13.549360 -0.578658 4.871123 -13.541397 -1.271938 0.909242 31.376360 -0.083519 0.744246 9.781192 0.380791 0.343233 -6.104262 -13.169972 -8.902356 -8.649336 15.873944 -12.042697 8.173188 6.130296 -5.495429 5.684157 0.000000 0.000000 0.000000 4.621043 -16.509598 -42.908989 38.755920 -47.315263 17.519132 14.660303 -19.326400 -10.040740 0.000000 0.000000 0.000000 -7.125000 0.000000 0.000000 -10.820355 40.119652 -1.319663 0.000000 0.000000 0.000000 -8.534181 -15.350283 34.203859 -33.193963 -43.478611 -13.555372 -14.061937 -6.258446 -11.310216 0.000000 0.000000 0.000000 7.125000 0.000000 0.000000 9.163171 18.413452 5.875204
0.264186 15.793341 -1.997993 -0.448786 -0.738633 16.866939 0.000000 0.000000 0.000000 -9.592578 -16.412873 -34.660012 3.028789 10.741486 31.412924 0.207451 0.973136 -9.014259 0.591148 -4.922418 -13.687424 0.000000 0.000000 0.000000 9.064834 20.515942 -35.200818 -3.722385 -11.781562 34.963560 -0.223506 -6.346881 -13.448250 -0.587382 4.907022 -13.643623 -1.135939 0.865542 31.321408 0.049237 0.742055 9.779030 0.451675 0.340918 -6.082232 -13.472669 -8.793651 -7.568994 16.269787 -11.854885 6.680448 6.371318 -5.475414 5.062652 0.000000 0.000000 0.000000 4.231161 -16.242026 -43.229004 38.735593 -47.302662 17.504168 14.989223 -19.538416 -9.898265 0.000000 0.000000 0.000000 -7.125000 0.000000 0.000000 -10.508790 40.002332 -1.310793 0.000000 0.000000 0.000000 -8.372112 -15.517679 34.818254 -32.956655 -43.296649 -13.392332 -14.088518 -6.454794 -11.561939 0.000000 0.000000 0.000000 7.125000 0.000000 0.000000 9.139870 18.156265 5.912506
0.263341 15.799224 -1.997289 -0.372335 -0.807070 16.814531 0.000000 0.000000 0.000000 -9.726407 -16.355060 -34.457165 2.980944 10.664138 31.155388 0.200407 1.101869 -8.932606 0.599885 -4.957939 -13.788667 0.000000 0.000000 0.000000 9.035704 20.422022 -35.088113 -3.693069 -11.740406 34.819739 -0.224118 -6.255495 -13.367076 -0.569068 4.831020 -13.427321 -1.150115 0.878994 31.226535 0.028102 0.754241 9.871422 0.433337 0.345985 -5.934039 -14.061992 -8.688002 -5.725214 17.407624 -11.702367 4.303587 6.932044 -5.508181 4.130019 0.000000 0.000000 0.000000 3.929576 -16.250600 -43.850398 38.564157 -47.195741 17.378317 15.083516 -19.414089 -9.811433 0.000000 0.000000 0.000000 -7.125000 0.000000 0.000000 -10.410435 39.921930 -1.319150 0.000000 0.000000 0.000000 -8.186247 -15.732359 35.190910 -32.565159 -42.993061 -13.124603 -14.257473 -6.101669 -11.708499 0.000000 0.000000 0.000000 7.125000 0.000000 0.000000 9.019549 17.996845 5.864788
